{
	"patcher" : 	{
		"fileversion" : 1,
		"appversion" : 		{
			"major" : 8,
			"minor" : 6,
			"revision" : 1,
			"architecture" : "x64",
			"modernui" : 1
		}
,
		"classnamespace" : "box",
		"rect" : [ 737.0, 251.0, 957.0, 832.0 ],
		"bglocked" : 0,
		"openinpresentation" : 1,
		"default_fontsize" : 12.0,
		"default_fontface" : 0,
		"default_fontname" : "Arial",
		"gridonopen" : 1,
		"gridsize" : [ 15.0, 15.0 ],
		"gridsnaponopen" : 1,
		"objectsnaponopen" : 1,
		"statusbarvisible" : 2,
		"toolbarvisible" : 1,
		"lefttoolbarpinned" : 0,
		"toptoolbarpinned" : 0,
		"righttoolbarpinned" : 0,
		"bottomtoolbarpinned" : 0,
		"toolbars_unpinned_last_save" : 0,
		"tallnewobj" : 0,
		"boxanimatetime" : 200,
		"enablehscroll" : 1,
		"enablevscroll" : 1,
		"devicewidth" : 0.0,
		"description" : "",
		"digest" : "",
		"tags" : "",
		"style" : "",
		"subpatcher_template" : "",
		"assistshowspatchername" : 0,
		"boxes" : [ 			{
				"box" : 				{
					"angle" : 270.0,
					"bgcolor" : [ 0.388235294117647, 0.227450980392157, 0.164705882352941, 0.0 ],
					"border" : 2,
					"bordercolor" : [ 0.831372549019608, 0.270588235294118, 0.309803921568627, 1.0 ],
					"id" : "obj-27",
					"maxclass" : "panel",
					"mode" : 0,
					"numinlets" : 1,
					"numoutlets" : 0,
					"patching_rect" : [ 338.0, 262.0, 335.5, 194.0 ],
					"presentation" : 1,
					"presentation_rect" : [ 2.0, 1.0, 335.5, 194.0 ],
					"proportion" : 0.5,
					"rounded" : 0
				}

			}
, 			{
				"box" : 				{
					"comment" : "",
					"id" : "obj-26",
					"index" : 1,
					"maxclass" : "outlet",
					"numinlets" : 1,
					"numoutlets" : 0,
					"patching_rect" : [ 131.0, 714.0, 30.0, 30.0 ]
				}

			}
, 			{
				"box" : 				{
					"comment" : "",
					"id" : "obj-25",
					"index" : 1,
					"maxclass" : "inlet",
					"numinlets" : 0,
					"numoutlets" : 1,
					"outlettype" : [ "" ],
					"patching_rect" : [ 577.0, 119.0, 30.0, 30.0 ]
				}

			}
, 			{
				"box" : 				{
					"id" : "obj-48",
					"maxclass" : "comment",
					"numinlets" : 1,
					"numoutlets" : 0,
					"patching_rect" : [ 332.0, 185.0, 88.0, 20.0 ],
					"presentation" : 1,
					"presentation_rect" : [ 2.0, 1.0, 87.0, 20.0 ],
					"text" : "Amp Envelope",
					"textcolor" : [ 0.831372549019608, 0.270588235294118, 0.309803921568627, 1.0 ]
				}

			}
, 			{
				"box" : 				{
					"activedialcolor" : [ 0.831372549019608, 0.270588235294118, 0.309803921568627, 1.0 ],
					"annotation" : "",
					"appearance" : 1,
					"id" : "obj-90",
					"maxclass" : "live.dial",
					"numinlets" : 1,
					"numoutlets" : 2,
					"outlettype" : [ "", "float" ],
					"parameter_enable" : 1,
					"patching_rect" : [ 453.0, 522.0, 47.0, 36.0 ],
					"presentation" : 1,
					"presentation_rect" : [ 289.0, 92.0, 58.322242736816406, 36.0 ],
					"saved_attribute_attributes" : 					{
						"activedialcolor" : 						{
							"expression" : ""
						}
,
						"activeneedlecolor" : 						{
							"expression" : ""
						}
,
						"textcolor" : 						{
							"expression" : ""
						}
,
						"tricolor" : 						{
							"expression" : ""
						}
,
						"valueof" : 						{
							"parameter_exponent" : 0.5,
							"parameter_initial" : [ -72.0 ],
							"parameter_initial_enable" : 1,
							"parameter_longname" : "Feedback[14]",
							"parameter_mmax" : 0.0,
							"parameter_mmin" : -72.0,
							"parameter_modmode" : 0,
							"parameter_shortname" : "Feedback",
							"parameter_type" : 0,
							"parameter_unitstyle" : 4
						}

					}
,
					"textcolor" : [ 0.831372549019608, 0.270588235294118, 0.309803921568627, 1.0 ],
					"tricolor" : [ 1.0, 1.0, 1.0, 1.0 ],
					"varname" : "Feedback"
				}

			}
, 			{
				"box" : 				{
					"activedialcolor" : [ 0.831372549019608, 0.270588235294118, 0.309803921568627, 1.0 ],
					"annotation" : "",
					"id" : "obj-52",
					"maxclass" : "live.dial",
					"numinlets" : 1,
					"numoutlets" : 2,
					"outlettype" : [ "", "float" ],
					"parameter_enable" : 1,
					"patching_rect" : [ 397.0, 529.0, 44.0, 48.0 ],
					"presentation" : 1,
					"presentation_rect" : [ 244.0, 92.0, 44.0, 48.0 ],
					"saved_attribute_attributes" : 					{
						"activedialcolor" : 						{
							"expression" : ""
						}
,
						"activeneedlecolor" : 						{
							"expression" : ""
						}
,
						"textcolor" : 						{
							"expression" : ""
						}
,
						"tricolor" : 						{
							"expression" : ""
						}
,
						"valueof" : 						{
							"parameter_enum" : [ "whole", "1/2", "1/4", "1/8", "1/16", "1/32", "--", "1/2 dotted", "1/4 dotted", "1/8 dotted", "1/16 dotted", "1/32 dotted", "--", "1/2 triplet", "1/4 triplet", "1/8 triplet", "1/16 triplet", "1/32 triplet" ],
							"parameter_initial" : [ 200.0 ],
							"parameter_initial_enable" : 1,
							"parameter_invisible" : 1,
							"parameter_longname" : "time[16]",
							"parameter_mmax" : 2000.0,
							"parameter_modmode" : 0,
							"parameter_shortname" : "Time",
							"parameter_type" : 0,
							"parameter_unitstyle" : 2
						}

					}
,
					"textcolor" : [ 0.831372549019608, 0.270588235294118, 0.309803921568627, 1.0 ],
					"tricolor" : [ 1.0, 1.0, 1.0, 1.0 ],
					"varname" : "time"
				}

			}
, 			{
				"box" : 				{
					"fontsize" : 9.5,
					"id" : "obj-62",
					"maxclass" : "comment",
					"numinlets" : 1,
					"numoutlets" : 0,
					"patching_rect" : [ 260.0, 509.0, 39.772726893424988, 17.0 ],
					"presentation" : 1,
					"presentation_rect" : [ 210.0, 88.0, 33.5, 17.0 ],
					"text" : "Delay",
					"textcolor" : [ 0.831372549019608, 0.270588235294118, 0.309803921568627, 1.0 ]
				}

			}
, 			{
				"box" : 				{
					"activebgcolor" : [ 0.095481, 0.100396, 0.100293, 1.0 ],
					"activebgoncolor" : [ 0.831372549019608, 0.270588235294118, 0.309803921568627, 1.0 ],
					"id" : "obj-55",
					"maxclass" : "live.toggle",
					"numinlets" : 1,
					"numoutlets" : 1,
					"outlettype" : [ "" ],
					"parameter_enable" : 1,
					"patching_rect" : [ 258.0, 529.0, 41.5, 44.5 ],
					"presentation" : 1,
					"presentation_rect" : [ 212.0, 106.0, 26.811594426631927, 28.985507488250732 ],
					"saved_attribute_attributes" : 					{
						"activebgcolor" : 						{
							"expression" : ""
						}
,
						"activebgoncolor" : 						{
							"expression" : ""
						}
,
						"lcdcolor" : 						{
							"expression" : ""
						}
,
						"valueof" : 						{
							"parameter_enum" : [ "off", "on" ],
							"parameter_longname" : "live.toggle[6]",
							"parameter_mmax" : 1.0,
							"parameter_modmode" : 3,
							"parameter_shortname" : "live.toggle",
							"parameter_type" : 0
						}

					}
,
					"varname" : "live.toggle"
				}

			}
, 			{
				"box" : 				{
					"activedialcolor" : [ 0.831372549019608, 0.270588235294118, 0.309803921568627, 1.0 ],
					"id" : "obj-54",
					"maxclass" : "live.dial",
					"numinlets" : 1,
					"numoutlets" : 2,
					"outlettype" : [ "", "float" ],
					"parameter_enable" : 1,
					"patching_rect" : [ 374.0, 639.0, 41.0, 48.0 ],
					"presentation" : 1,
					"presentation_rect" : [ 204.0, 141.0, 41.0, 48.0 ],
					"saved_attribute_attributes" : 					{
						"activedialcolor" : 						{
							"expression" : ""
						}
,
						"activeneedlecolor" : 						{
							"expression" : ""
						}
,
						"textcolor" : 						{
							"expression" : ""
						}
,
						"tricolor" : 						{
							"expression" : ""
						}
,
						"valueof" : 						{
							"parameter_linknames" : 1,
							"parameter_longname" : "Reverb[6]",
							"parameter_modmode" : 3,
							"parameter_shortname" : "Reverb",
							"parameter_steps" : 128,
							"parameter_type" : 0,
							"parameter_unitstyle" : 1
						}

					}
,
					"textcolor" : [ 0.831372549019608, 0.270588235294118, 0.309803921568627, 1.0 ],
					"tricolor" : [ 1.0, 1.0, 1.0, 1.0 ],
					"varname" : "Reverb"
				}

			}
, 			{
				"box" : 				{
					"activedialcolor" : [ 0.831372549019608, 0.270588235294118, 0.309803921568627, 1.0 ],
					"id" : "obj-13",
					"maxclass" : "live.dial",
					"numinlets" : 1,
					"numoutlets" : 2,
					"outlettype" : [ "", "float" ],
					"parameter_enable" : 1,
					"patching_rect" : [ 151.0, 608.0, 41.0, 48.0 ],
					"presentation" : 1,
					"presentation_rect" : [ 289.0, 141.0, 41.0, 48.0 ],
					"saved_attribute_attributes" : 					{
						"activedialcolor" : 						{
							"expression" : ""
						}
,
						"activeneedlecolor" : 						{
							"expression" : ""
						}
,
						"textcolor" : 						{
							"expression" : ""
						}
,
						"tricolor" : 						{
							"expression" : ""
						}
,
						"valueof" : 						{
							"parameter_linknames" : 1,
							"parameter_longname" : "volume[6]",
							"parameter_mmax" : 1.0,
							"parameter_modmode" : 3,
							"parameter_shortname" : "volume",
							"parameter_steps" : 128,
							"parameter_type" : 0,
							"parameter_unitstyle" : 1
						}

					}
,
					"textcolor" : [ 0.831372549019608, 0.270588235294118, 0.309803921568627, 1.0 ],
					"tricolor" : [ 1.0, 1.0, 1.0, 1.0 ],
					"varname" : "volume"
				}

			}
, 			{
				"box" : 				{
					"activedialcolor" : [ 0.831372549019608, 0.270588235294118, 0.309803921568627, 1.0 ],
					"id" : "obj-14",
					"maxclass" : "live.dial",
					"numinlets" : 1,
					"numoutlets" : 2,
					"outlettype" : [ "", "float" ],
					"parameter_enable" : 1,
					"patching_rect" : [ 111.0, 470.0, 41.0, 48.0 ],
					"presentation" : 1,
					"presentation_rect" : [ 246.0, 141.0, 41.0, 48.0 ],
					"saved_attribute_attributes" : 					{
						"activedialcolor" : 						{
							"expression" : ""
						}
,
						"activeneedlecolor" : 						{
							"expression" : ""
						}
,
						"textcolor" : 						{
							"expression" : ""
						}
,
						"tricolor" : 						{
							"expression" : ""
						}
,
						"valueof" : 						{
							"parameter_linknames" : 1,
							"parameter_longname" : "overdrive[4]",
							"parameter_mmax" : 12.0,
							"parameter_mmin" : 1.0,
							"parameter_modmode" : 3,
							"parameter_shortname" : "overdrive",
							"parameter_steps" : 128,
							"parameter_type" : 0,
							"parameter_unitstyle" : 1
						}

					}
,
					"textcolor" : [ 0.831372549019608, 0.270588235294118, 0.309803921568627, 1.0 ],
					"tricolor" : [ 1.0, 1.0, 1.0, 1.0 ],
					"varname" : "overdrive"
				}

			}
, 			{
				"box" : 				{
					"id" : "obj-23",
					"maxclass" : "newobj",
					"numinlets" : 1,
					"numoutlets" : 6,
					"outlettype" : [ "", "", "", "", "", "" ],
					"patcher" : 					{
						"fileversion" : 1,
						"appversion" : 						{
							"major" : 8,
							"minor" : 6,
							"revision" : 1,
							"architecture" : "x64",
							"modernui" : 1
						}
,
						"classnamespace" : "box",
						"rect" : [ 875.0, 112.0, 640.0, 480.0 ],
						"bglocked" : 0,
						"openinpresentation" : 0,
						"default_fontsize" : 12.0,
						"default_fontface" : 0,
						"default_fontname" : "Arial",
						"gridonopen" : 1,
						"gridsize" : [ 15.0, 15.0 ],
						"gridsnaponopen" : 1,
						"objectsnaponopen" : 1,
						"statusbarvisible" : 2,
						"toolbarvisible" : 1,
						"lefttoolbarpinned" : 0,
						"toptoolbarpinned" : 0,
						"righttoolbarpinned" : 0,
						"bottomtoolbarpinned" : 0,
						"toolbars_unpinned_last_save" : 0,
						"tallnewobj" : 0,
						"boxanimatetime" : 200,
						"enablehscroll" : 1,
						"enablevscroll" : 1,
						"devicewidth" : 0.0,
						"description" : "",
						"digest" : "",
						"tags" : "",
						"style" : "",
						"subpatcher_template" : "",
						"assistshowspatchername" : 0,
						"boxes" : [ 							{
								"box" : 								{
									"id" : "obj-6",
									"maxclass" : "comment",
									"numinlets" : 1,
									"numoutlets" : 0,
									"patching_rect" : [ 132.0, 242.0, 36.0, 20.0 ],
									"text" : "Time",
									"textcolor" : [ 1.0, 1.0, 1.0, 1.0 ]
								}

							}
, 							{
								"box" : 								{
									"id" : "obj-5",
									"maxclass" : "comment",
									"numinlets" : 1,
									"numoutlets" : 0,
									"patching_rect" : [ 223.0, 219.0, 64.0, 20.0 ],
									"text" : "Feedback",
									"textcolor" : [ 1.0, 1.0, 1.0, 1.0 ]
								}

							}
, 							{
								"box" : 								{
									"id" : "obj-97",
									"maxclass" : "newobj",
									"numinlets" : 6,
									"numoutlets" : 1,
									"outlettype" : [ "" ],
									"patching_rect" : [ 180.0, 241.0, 107.0, 22.0 ],
									"text" : "scale 0 127 -72. 0."
								}

							}
, 							{
								"box" : 								{
									"id" : "obj-95",
									"maxclass" : "newobj",
									"numinlets" : 6,
									"numoutlets" : 1,
									"outlettype" : [ "" ],
									"patching_rect" : [ 51.0, 268.0, 117.0, 22.0 ],
									"text" : "scale 0 127 0. 2000."
								}

							}
, 							{
								"box" : 								{
									"id" : "obj-71",
									"maxclass" : "comment",
									"numinlets" : 1,
									"numoutlets" : 0,
									"patching_rect" : [ 364.0, 242.0, 58.0, 20.0 ],
									"text" : "overdrive",
									"textcolor" : [ 1.0, 1.0, 1.0, 1.0 ]
								}

							}
, 							{
								"box" : 								{
									"id" : "obj-72",
									"maxclass" : "newobj",
									"numinlets" : 6,
									"numoutlets" : 1,
									"outlettype" : [ "" ],
									"patching_rect" : [ 319.0, 269.0, 97.0, 22.0 ],
									"text" : "scale 0 127 1. 6."
								}

							}
, 							{
								"box" : 								{
									"id" : "obj-54",
									"maxclass" : "comment",
									"numinlets" : 1,
									"numoutlets" : 0,
									"patching_rect" : [ 476.0, 214.0, 47.0, 20.0 ],
									"text" : "volume",
									"textcolor" : [ 1.0, 1.0, 1.0, 1.0 ]
								}

							}
, 							{
								"box" : 								{
									"id" : "obj-55",
									"maxclass" : "newobj",
									"numinlets" : 6,
									"numoutlets" : 1,
									"outlettype" : [ "" ],
									"patching_rect" : [ 426.0, 241.0, 97.0, 22.0 ],
									"text" : "scale 0 127 0. 1."
								}

							}
, 							{
								"box" : 								{
									"id" : "obj-57",
									"maxclass" : "comment",
									"numinlets" : 1,
									"numoutlets" : 0,
									"patching_rect" : [ 147.0, 83.0, 50.0, 20.0 ],
									"text" : "MIdi Ch",
									"textcolor" : [ 1.0, 1.0, 1.0, 1.0 ]
								}

							}
, 							{
								"box" : 								{
									"id" : "obj-58",
									"maxclass" : "newobj",
									"numinlets" : 2,
									"numoutlets" : 2,
									"outlettype" : [ "", "" ],
									"patching_rect" : [ 149.0, 109.0, 46.0, 22.0 ],
									"text" : "route 7"
								}

							}
, 							{
								"box" : 								{
									"id" : "obj-60",
									"maxclass" : "newobj",
									"numinlets" : 1,
									"numoutlets" : 7,
									"outlettype" : [ "", "", "", "", "", "", "" ],
									"patching_rect" : [ 149.0, 146.0, 82.0, 22.0 ],
									"text" : "spray 7"
								}

							}
, 							{
								"box" : 								{
									"comment" : "",
									"id" : "obj-88",
									"index" : 1,
									"maxclass" : "inlet",
									"numinlets" : 0,
									"numoutlets" : 1,
									"outlettype" : [ "" ],
									"patching_rect" : [ 149.0, 23.0, 30.0, 30.0 ]
								}

							}
, 							{
								"box" : 								{
									"comment" : "",
									"id" : "obj-89",
									"index" : 1,
									"maxclass" : "outlet",
									"numinlets" : 1,
									"numoutlets" : 0,
									"patching_rect" : [ 16.0, 308.0, 30.0, 30.0 ]
								}

							}
, 							{
								"box" : 								{
									"comment" : "",
									"id" : "obj-90",
									"index" : 4,
									"maxclass" : "outlet",
									"numinlets" : 1,
									"numoutlets" : 0,
									"patching_rect" : [ 283.0, 307.0, 30.0, 30.0 ]
								}

							}
, 							{
								"box" : 								{
									"comment" : "",
									"id" : "obj-91",
									"index" : 2,
									"maxclass" : "outlet",
									"numinlets" : 1,
									"numoutlets" : 0,
									"patching_rect" : [ 51.0, 308.0, 30.0, 30.0 ]
								}

							}
, 							{
								"box" : 								{
									"comment" : "",
									"id" : "obj-92",
									"index" : 3,
									"maxclass" : "outlet",
									"numinlets" : 1,
									"numoutlets" : 0,
									"patching_rect" : [ 180.0, 303.0, 30.0, 30.0 ]
								}

							}
, 							{
								"box" : 								{
									"comment" : "",
									"id" : "obj-93",
									"index" : 5,
									"maxclass" : "outlet",
									"numinlets" : 1,
									"numoutlets" : 0,
									"patching_rect" : [ 319.0, 307.0, 30.0, 30.0 ]
								}

							}
, 							{
								"box" : 								{
									"comment" : "",
									"id" : "obj-94",
									"index" : 6,
									"maxclass" : "outlet",
									"numinlets" : 1,
									"numoutlets" : 0,
									"patching_rect" : [ 426.0, 307.0, 30.0, 30.0 ]
								}

							}
 ],
						"lines" : [ 							{
								"patchline" : 								{
									"destination" : [ "obj-94", 0 ],
									"source" : [ "obj-55", 0 ]
								}

							}
, 							{
								"patchline" : 								{
									"destination" : [ "obj-60", 0 ],
									"source" : [ "obj-58", 0 ]
								}

							}
, 							{
								"patchline" : 								{
									"destination" : [ "obj-55", 0 ],
									"midpoints" : [ 221.5, 185.0, 435.5, 185.0 ],
									"source" : [ "obj-60", 6 ]
								}

							}
, 							{
								"patchline" : 								{
									"destination" : [ "obj-72", 0 ],
									"midpoints" : [ 211.0, 196.5, 328.5, 196.5 ],
									"source" : [ "obj-60", 5 ]
								}

							}
, 							{
								"patchline" : 								{
									"destination" : [ "obj-89", 0 ],
									"midpoints" : [ 169.0, 222.0, 25.5, 222.0 ],
									"source" : [ "obj-60", 1 ]
								}

							}
, 							{
								"patchline" : 								{
									"destination" : [ "obj-90", 0 ],
									"midpoints" : [ 200.5, 205.0, 292.5, 205.0 ],
									"source" : [ "obj-60", 4 ]
								}

							}
, 							{
								"patchline" : 								{
									"destination" : [ "obj-95", 0 ],
									"midpoints" : [ 179.5, 233.0, 60.5, 233.0 ],
									"source" : [ "obj-60", 2 ]
								}

							}
, 							{
								"patchline" : 								{
									"destination" : [ "obj-97", 0 ],
									"source" : [ "obj-60", 3 ]
								}

							}
, 							{
								"patchline" : 								{
									"destination" : [ "obj-93", 0 ],
									"source" : [ "obj-72", 0 ]
								}

							}
, 							{
								"patchline" : 								{
									"destination" : [ "obj-58", 0 ],
									"source" : [ "obj-88", 0 ]
								}

							}
, 							{
								"patchline" : 								{
									"destination" : [ "obj-91", 0 ],
									"source" : [ "obj-95", 0 ]
								}

							}
, 							{
								"patchline" : 								{
									"destination" : [ "obj-92", 0 ],
									"source" : [ "obj-97", 0 ]
								}

							}
 ],
						"bgcolor" : [ 0.0, 0.0, 0.0, 1.0 ],
						"editing_bgcolor" : [ 0.0, 0.0, 0.0, 1.0 ]
					}
,
					"patching_rect" : [ 302.0, 470.0, 71.5, 22.0 ],
					"saved_object_attributes" : 					{
						"description" : "",
						"digest" : "",
						"editing_bgcolor" : [ 0.0, 0.0, 0.0, 1.0 ],
						"globalpatchername" : "",
						"locked_bgcolor" : [ 0.0, 0.0, 0.0, 1.0 ],
						"tags" : ""
					}
,
					"text" : "p midiCtrl2"
				}

			}
, 			{
				"box" : 				{
					"id" : "obj-24",
					"maxclass" : "newobj",
					"numinlets" : 5,
					"numoutlets" : 1,
					"outlettype" : [ "signal" ],
					"patcher" : 					{
						"fileversion" : 1,
						"appversion" : 						{
							"major" : 8,
							"minor" : 6,
							"revision" : 1,
							"architecture" : "x64",
							"modernui" : 1
						}
,
						"classnamespace" : "box",
						"rect" : [ 709.0, 174.0, 1030.0, 891.0 ],
						"bglocked" : 0,
						"openinpresentation" : 0,
						"default_fontsize" : 12.0,
						"default_fontface" : 0,
						"default_fontname" : "Arial",
						"gridonopen" : 1,
						"gridsize" : [ 15.0, 15.0 ],
						"gridsnaponopen" : 1,
						"objectsnaponopen" : 1,
						"statusbarvisible" : 2,
						"toolbarvisible" : 1,
						"lefttoolbarpinned" : 0,
						"toptoolbarpinned" : 0,
						"righttoolbarpinned" : 0,
						"bottomtoolbarpinned" : 0,
						"toolbars_unpinned_last_save" : 0,
						"tallnewobj" : 0,
						"boxanimatetime" : 200,
						"enablehscroll" : 1,
						"enablevscroll" : 1,
						"devicewidth" : 0.0,
						"description" : "",
						"digest" : "",
						"tags" : "",
						"style" : "",
						"subpatcher_template" : "",
						"assistshowspatchername" : 0,
						"boxes" : [ 							{
								"box" : 								{
									"id" : "obj-105",
									"maxclass" : "newobj",
									"numinlets" : 1,
									"numoutlets" : 1,
									"outlettype" : [ "" ],
									"patching_rect" : [ 357.0, 601.0, 147.0, 22.0 ],
									"text" : "if $i1 >= 1 then 120 else 0"
								}

							}
, 							{
								"box" : 								{
									"activedialcolor" : [ 0.278431, 0.839216, 1.0, 1.0 ],
									"activefgdialcolor" : [ 0.65098, 0.666667, 0.662745, 1.0 ],
									"activeneedlecolor" : [ 1.0, 1.0, 1.0, 0.7 ],
									"focusbordercolor" : [ 1.0, 1.0, 1.0, 1.0 ],
									"id" : "obj-104",
									"maxclass" : "live.dial",
									"numinlets" : 1,
									"numoutlets" : 2,
									"outlettype" : [ "", "float" ],
									"parameter_enable" : 1,
									"patching_rect" : [ 437.0, 400.0, 44.0, 48.0 ],
									"presentation" : 1,
									"presentation_rect" : [ 282.938289642333984, 268.0, 44.0, 48.0 ],
									"saved_attribute_attributes" : 									{
										"activedialcolor" : 										{
											"expression" : ""
										}
,
										"activefgdialcolor" : 										{
											"expression" : ""
										}
,
										"activeneedlecolor" : 										{
											"expression" : ""
										}
,
										"focusbordercolor" : 										{
											"expression" : ""
										}
,
										"textcolor" : 										{
											"expression" : ""
										}
,
										"valueof" : 										{
											"parameter_initial" : [ 25 ],
											"parameter_initial_enable" : 1,
											"parameter_longname" : "Size[14]",
											"parameter_mmax" : 100.0,
											"parameter_modmode" : 0,
											"parameter_shortname" : "Size",
											"parameter_type" : 0,
											"parameter_unitstyle" : 1
										}

									}
,
									"textcolor" : [ 1.0, 1.0, 1.0, 0.7 ],
									"varname" : "Size"
								}

							}
, 							{
								"box" : 								{
									"id" : "obj-100",
									"maxclass" : "newobj",
									"numinlets" : 6,
									"numoutlets" : 1,
									"outlettype" : [ "" ],
									"patching_rect" : [ 437.0, 361.0, 107.0, 22.0 ],
									"text" : "scale 0 127 0. 100"
								}

							}
, 							{
								"box" : 								{
									"id" : "obj-99",
									"maxclass" : "gain~",
									"multichannelvariant" : 0,
									"numinlets" : 1,
									"numoutlets" : 2,
									"outlettype" : [ "signal", "" ],
									"parameter_enable" : 0,
									"patching_rect" : [ 381.0, 645.0, 118.0, 30.0 ]
								}

							}
, 							{
								"box" : 								{
									"bgmode" : 0,
									"border" : 0,
									"clickthrough" : 0,
									"enablehscroll" : 0,
									"enablevscroll" : 0,
									"id" : "obj-98",
									"lockeddragscroll" : 0,
									"lockedsize" : 0,
									"maxclass" : "bpatcher",
									"name" : "reverbmod.maxpat",
									"numinlets" : 6,
									"numoutlets" : 2,
									"offset" : [ 0.0, 0.0 ],
									"outlettype" : [ "signal", "signal" ],
									"patching_rect" : [ 381.0, 459.0, 299.0, 127.0 ],
									"varname" : "reverbmod",
									"viewvisibility" : 1
								}

							}
, 							{
								"box" : 								{
									"id" : "obj-96",
									"maxclass" : "newobj",
									"numinlets" : 1,
									"numoutlets" : 1,
									"outlettype" : [ "" ],
									"patching_rect" : [ 38.0, 117.0, 133.0, 22.0 ],
									"text" : "if $i1 >= 1 then 2 else 1"
								}

							}
, 							{
								"box" : 								{
									"id" : "obj-89",
									"maxclass" : "number",
									"numinlets" : 1,
									"numoutlets" : 2,
									"outlettype" : [ "", "bang" ],
									"parameter_enable" : 0,
									"patching_rect" : [ 38.0, 153.0, 50.0, 22.0 ]
								}

							}
, 							{
								"box" : 								{
									"fontname" : "Arial",
									"fontsize" : 12.0,
									"id" : "obj-87",
									"maxclass" : "newobj",
									"numinlets" : 3,
									"numoutlets" : 1,
									"outlettype" : [ "signal" ],
									"patching_rect" : [ 38.0, 195.0, 87.0, 22.0 ],
									"text" : "selector~ 2 1"
								}

							}
, 							{
								"box" : 								{
									"bgmode" : 0,
									"border" : 0,
									"clickthrough" : 0,
									"enablehscroll" : 0,
									"enablevscroll" : 0,
									"id" : "obj-53",
									"lockeddragscroll" : 0,
									"lockedsize" : 0,
									"maxclass" : "bpatcher",
									"name" : "delaymod.maxpat",
									"numinlets" : 3,
									"numoutlets" : 1,
									"offset" : [ 0.0, 0.0 ],
									"outlettype" : [ "signal" ],
									"patching_rect" : [ 38.0, 234.0, 285.0, 103.0 ],
									"varname" : "delaymod",
									"viewvisibility" : 1
								}

							}
, 							{
								"box" : 								{
									"comment" : "",
									"id" : "obj-68",
									"index" : 1,
									"maxclass" : "inlet",
									"numinlets" : 0,
									"numoutlets" : 1,
									"outlettype" : [ "" ],
									"patching_rect" : [ 38.0, 33.0, 30.0, 30.0 ]
								}

							}
, 							{
								"box" : 								{
									"comment" : "",
									"id" : "obj-69",
									"index" : 2,
									"maxclass" : "inlet",
									"numinlets" : 0,
									"numoutlets" : 1,
									"outlettype" : [ "multichannelsignal" ],
									"patching_rect" : [ 106.0, 33.0, 30.0, 30.0 ]
								}

							}
, 							{
								"box" : 								{
									"comment" : "",
									"id" : "obj-77",
									"index" : 5,
									"maxclass" : "inlet",
									"numinlets" : 0,
									"numoutlets" : 1,
									"outlettype" : [ "" ],
									"patching_rect" : [ 437.0, 278.0, 30.0, 30.0 ]
								}

							}
, 							{
								"box" : 								{
									"comment" : "",
									"id" : "obj-78",
									"index" : 3,
									"maxclass" : "inlet",
									"numinlets" : 0,
									"numoutlets" : 1,
									"outlettype" : [ "" ],
									"patching_rect" : [ 171.0, 178.0, 30.0, 30.0 ]
								}

							}
, 							{
								"box" : 								{
									"comment" : "",
									"id" : "obj-79",
									"index" : 4,
									"maxclass" : "inlet",
									"numinlets" : 0,
									"numoutlets" : 1,
									"outlettype" : [ "" ],
									"patching_rect" : [ 304.0, 178.0, 30.0, 30.0 ]
								}

							}
, 							{
								"box" : 								{
									"comment" : "",
									"id" : "obj-80",
									"index" : 1,
									"maxclass" : "outlet",
									"numinlets" : 1,
									"numoutlets" : 0,
									"patching_rect" : [ 381.0, 746.0, 30.0, 30.0 ]
								}

							}
 ],
						"lines" : [ 							{
								"patchline" : 								{
									"destination" : [ "obj-104", 0 ],
									"source" : [ "obj-100", 0 ]
								}

							}
, 							{
								"patchline" : 								{
									"destination" : [ "obj-98", 1 ],
									"source" : [ "obj-104", 0 ]
								}

							}
, 							{
								"patchline" : 								{
									"destination" : [ "obj-99", 0 ],
									"midpoints" : [ 366.5, 633.5, 390.5, 633.5 ],
									"source" : [ "obj-105", 0 ]
								}

							}
, 							{
								"patchline" : 								{
									"destination" : [ "obj-80", 0 ],
									"midpoints" : [ 47.5, 722.888893127441406, 390.5, 722.888893127441406 ],
									"order" : 0,
									"source" : [ "obj-53", 0 ]
								}

							}
, 							{
								"patchline" : 								{
									"destination" : [ "obj-98", 0 ],
									"midpoints" : [ 47.5, 438.388893127441406, 390.5, 438.388893127441406 ],
									"order" : 1,
									"source" : [ "obj-53", 0 ]
								}

							}
, 							{
								"patchline" : 								{
									"destination" : [ "obj-96", 0 ],
									"source" : [ "obj-68", 0 ]
								}

							}
, 							{
								"patchline" : 								{
									"destination" : [ "obj-87", 2 ],
									"order" : 0,
									"source" : [ "obj-69", 0 ]
								}

							}
, 							{
								"patchline" : 								{
									"destination" : [ "obj-98", 0 ],
									"midpoints" : [ 115.5, 83.0, 390.5, 83.0 ],
									"order" : 1,
									"source" : [ "obj-69", 0 ]
								}

							}
, 							{
								"patchline" : 								{
									"destination" : [ "obj-100", 0 ],
									"order" : 0,
									"source" : [ "obj-77", 0 ]
								}

							}
, 							{
								"patchline" : 								{
									"destination" : [ "obj-105", 0 ],
									"midpoints" : [ 446.5, 342.0, 366.5, 342.0 ],
									"order" : 1,
									"source" : [ "obj-77", 0 ]
								}

							}
, 							{
								"patchline" : 								{
									"destination" : [ "obj-53", 1 ],
									"source" : [ "obj-78", 0 ]
								}

							}
, 							{
								"patchline" : 								{
									"destination" : [ "obj-53", 2 ],
									"source" : [ "obj-79", 0 ]
								}

							}
, 							{
								"patchline" : 								{
									"destination" : [ "obj-53", 0 ],
									"source" : [ "obj-87", 0 ]
								}

							}
, 							{
								"patchline" : 								{
									"destination" : [ "obj-87", 0 ],
									"source" : [ "obj-89", 0 ]
								}

							}
, 							{
								"patchline" : 								{
									"destination" : [ "obj-89", 0 ],
									"source" : [ "obj-96", 0 ]
								}

							}
, 							{
								"patchline" : 								{
									"destination" : [ "obj-99", 0 ],
									"midpoints" : [ 670.5, 629.0, 390.5, 629.0 ],
									"source" : [ "obj-98", 1 ]
								}

							}
, 							{
								"patchline" : 								{
									"destination" : [ "obj-99", 0 ],
									"source" : [ "obj-98", 0 ]
								}

							}
, 							{
								"patchline" : 								{
									"destination" : [ "obj-80", 0 ],
									"source" : [ "obj-99", 0 ]
								}

							}
 ],
						"bgcolor" : [ 0.0, 0.0, 0.0, 1.0 ],
						"editing_bgcolor" : [ 0.0, 0.0, 0.0, 1.0 ]
					}
,
					"patching_rect" : [ 258.0, 699.0, 88.0, 22.0 ],
					"saved_object_attributes" : 					{
						"description" : "",
						"digest" : "",
						"editing_bgcolor" : [ 0.0, 0.0, 0.0, 1.0 ],
						"globalpatchername" : "",
						"locked_bgcolor" : [ 0.0, 0.0, 0.0, 1.0 ],
						"tags" : ""
					}
,
					"text" : "p ReverbDelay",
					"varname" : "patcher[1]"
				}

			}
, 			{
				"box" : 				{
					"bubble_bgcolor" : [ 0.831372549019608, 0.270588235294118, 0.309803921568627, 1.0 ],
					"fontname" : "Helvetica Neue",
					"fontsize" : 19.0,
					"id" : "obj-65",
					"maxclass" : "comment",
					"numinlets" : 1,
					"numoutlets" : 0,
					"patching_rect" : [ 73.0, 57.0, 57.0, 29.0 ],
					"presentation" : 1,
					"presentation_rect" : [ 210.0, 18.0, 65.0, 29.0 ],
					"text" : "CLAP",
					"textcolor" : [ 0.831372549019608, 0.270588235294118, 0.309803921568627, 1.0 ]
				}

			}
, 			{
				"box" : 				{
					"activedialcolor" : [ 0.831372549019608, 0.270588235294118, 0.309803921568627, 1.0 ],
					"id" : "obj-37",
					"maxclass" : "live.dial",
					"numinlets" : 1,
					"numoutlets" : 2,
					"outlettype" : [ "", "float" ],
					"parameter_enable" : 1,
					"patching_rect" : [ 220.0, 38.0, 41.0, 48.0 ],
					"presentation" : 1,
					"presentation_rect" : [ 289.0, 21.0, 41.0, 48.0 ],
					"saved_attribute_attributes" : 					{
						"activedialcolor" : 						{
							"expression" : ""
						}
,
						"textcolor" : 						{
							"expression" : ""
						}
,
						"tricolor" : 						{
							"expression" : ""
						}
,
						"valueof" : 						{
							"parameter_longname" : "Amp Decay[6]",
							"parameter_mmax" : 300.0,
							"parameter_mmin" : 170.0,
							"parameter_modmode" : 3,
							"parameter_shortname" : "Decay",
							"parameter_steps" : 128,
							"parameter_type" : 0,
							"parameter_unitstyle" : 1
						}

					}
,
					"textcolor" : [ 0.831372549019608, 0.270588235294118, 0.309803921568627, 1.0 ],
					"tricolor" : [ 1.0, 1.0, 1.0, 1.0 ],
					"varname" : "decay"
				}

			}
, 			{
				"box" : 				{
					"id" : "obj-12",
					"maxclass" : "newobj",
					"numinlets" : 1,
					"numoutlets" : 1,
					"outlettype" : [ "" ],
					"patcher" : 					{
						"fileversion" : 1,
						"appversion" : 						{
							"major" : 8,
							"minor" : 6,
							"revision" : 1,
							"architecture" : "x64",
							"modernui" : 1
						}
,
						"classnamespace" : "box",
						"rect" : [ 914.0, 150.0, 738.0, 700.0 ],
						"bglocked" : 0,
						"openinpresentation" : 0,
						"default_fontsize" : 12.0,
						"default_fontface" : 0,
						"default_fontname" : "Arial",
						"gridonopen" : 1,
						"gridsize" : [ 15.0, 15.0 ],
						"gridsnaponopen" : 1,
						"objectsnaponopen" : 1,
						"statusbarvisible" : 2,
						"toolbarvisible" : 1,
						"lefttoolbarpinned" : 0,
						"toptoolbarpinned" : 0,
						"righttoolbarpinned" : 0,
						"bottomtoolbarpinned" : 0,
						"toolbars_unpinned_last_save" : 0,
						"tallnewobj" : 0,
						"boxanimatetime" : 200,
						"enablehscroll" : 1,
						"enablevscroll" : 1,
						"devicewidth" : 0.0,
						"description" : "",
						"digest" : "",
						"tags" : "",
						"style" : "",
						"subpatcher_template" : "",
						"assistshowspatchername" : 0,
						"boxes" : [ 							{
								"box" : 								{
									"comment" : "",
									"id" : "obj-2",
									"index" : 1,
									"maxclass" : "outlet",
									"numinlets" : 1,
									"numoutlets" : 0,
									"patching_rect" : [ 93.749996423721313, 260.416656732559204, 30.0, 30.0 ]
								}

							}
, 							{
								"box" : 								{
									"id" : "obj-52",
									"maxclass" : "comment",
									"numinlets" : 1,
									"numoutlets" : 0,
									"patching_rect" : [ 50.0, 100.0, 50.0, 20.0 ],
									"text" : "MIdi Ch",
									"textcolor" : [ 1.0, 1.0, 1.0, 1.0 ]
								}

							}
, 							{
								"box" : 								{
									"id" : "obj-50",
									"maxclass" : "comment",
									"numinlets" : 1,
									"numoutlets" : 0,
									"patching_rect" : [ 170.749996423721313, 206.124991297721863, 44.0, 20.0 ],
									"text" : "Decay",
									"textcolor" : [ 1.0, 1.0, 1.0, 1.0 ]
								}

							}
, 							{
								"box" : 								{
									"id" : "obj-37",
									"maxclass" : "newobj",
									"numinlets" : 5,
									"numoutlets" : 1,
									"outlettype" : [ "" ],
									"patching_rect" : [ 93.749996423721313, 228.124991297721863, 121.0, 22.0 ],
									"text" : "zmap 0 127 170. 300"
								}

							}
, 							{
								"box" : 								{
									"id" : "obj-16",
									"maxclass" : "newobj",
									"numinlets" : 2,
									"numoutlets" : 2,
									"outlettype" : [ "", "" ],
									"patching_rect" : [ 52.0, 126.0, 46.0, 22.0 ],
									"text" : "route 7"
								}

							}
, 							{
								"box" : 								{
									"id" : "obj-45",
									"maxclass" : "newobj",
									"numinlets" : 1,
									"numoutlets" : 5,
									"outlettype" : [ "", "", "", "", "" ],
									"patching_rect" : [ 52.0, 164.0, 61.0, 22.0 ],
									"text" : "spray 5"
								}

							}
, 							{
								"box" : 								{
									"comment" : "",
									"id" : "obj-61",
									"index" : 1,
									"maxclass" : "inlet",
									"numinlets" : 0,
									"numoutlets" : 1,
									"outlettype" : [ "" ],
									"patching_rect" : [ 51.999979666666491, 40.0, 30.0, 30.0 ]
								}

							}
 ],
						"lines" : [ 							{
								"patchline" : 								{
									"destination" : [ "obj-45", 0 ],
									"source" : [ "obj-16", 0 ]
								}

							}
, 							{
								"patchline" : 								{
									"destination" : [ "obj-2", 0 ],
									"source" : [ "obj-37", 0 ]
								}

							}
, 							{
								"patchline" : 								{
									"destination" : [ "obj-37", 0 ],
									"midpoints" : [ 103.5, 195.5, 103.249996423721313, 195.5 ],
									"source" : [ "obj-45", 4 ]
								}

							}
, 							{
								"patchline" : 								{
									"destination" : [ "obj-16", 0 ],
									"source" : [ "obj-61", 0 ]
								}

							}
 ],
						"bgcolor" : [ 0.0, 0.0, 0.0, 1.0 ],
						"editing_bgcolor" : [ 0.0, 0.0, 0.0, 1.0 ]
					}
,
					"patching_rect" : [ 350.0, 51.0, 66.0, 22.0 ],
					"saved_object_attributes" : 					{
						"description" : "",
						"digest" : "",
						"editing_bgcolor" : [ 0.0, 0.0, 0.0, 1.0 ],
						"globalpatchername" : "",
						"locked_bgcolor" : [ 0.0, 0.0, 0.0, 1.0 ],
						"tags" : ""
					}
,
					"text" : "p midiCtrl1"
				}

			}
, 			{
				"box" : 				{
					"id" : "obj-139",
					"maxclass" : "newobj",
					"numinlets" : 2,
					"numoutlets" : 1,
					"outlettype" : [ "multichannelsignal" ],
					"patching_rect" : [ 258.0, 731.0, 92.0, 22.0 ],
					"text" : "mc.mixdown~ 2"
				}

			}
, 			{
				"box" : 				{
					"id" : "obj-15",
					"maxclass" : "button",
					"numinlets" : 1,
					"numoutlets" : 1,
					"outlettype" : [ "bang" ],
					"parameter_enable" : 0,
					"patching_rect" : [ 424.0, 157.0, 24.0, 24.0 ]
				}

			}
, 			{
				"box" : 				{
					"id" : "obj-51",
					"maxclass" : "newobj",
					"numinlets" : 1,
					"numoutlets" : 3,
					"outlettype" : [ "int", "int", "int" ],
					"patching_rect" : [ 424.0, 123.0, 65.0, 22.0 ],
					"text" : "unpack i i i"
				}

			}
, 			{
				"box" : 				{
					"id" : "obj-49",
					"maxclass" : "newobj",
					"numinlets" : 2,
					"numoutlets" : 2,
					"outlettype" : [ "", "" ],
					"patching_rect" : [ 424.0, 91.0, 46.0, 22.0 ],
					"text" : "route 7"
				}

			}
, 			{
				"box" : 				{
					"id" : "obj-41",
					"maxclass" : "newobj",
					"numinlets" : 0,
					"numoutlets" : 3,
					"outlettype" : [ "", "", "" ],
					"patching_rect" : [ 424.0, 13.0, 60.0, 22.0 ],
					"text" : "Octatrack"
				}

			}
, 			{
				"box" : 				{
					"id" : "obj-8",
					"maxclass" : "newobj",
					"numinlets" : 1,
					"numoutlets" : 1,
					"outlettype" : [ "" ],
					"patching_rect" : [ 507.0, 173.0, 70.0, 22.0 ],
					"text" : "loadmess 1"
				}

			}
, 			{
				"box" : 				{
					"id" : "obj-30",
					"maxclass" : "preset",
					"numinlets" : 1,
					"numoutlets" : 5,
					"outlettype" : [ "preset", "int", "preset", "int", "" ],
					"patching_rect" : [ 507.0, 208.0, 100.0, 40.0 ],
					"preset_data" : [ 						{
							"number" : 1,
							"data" : [ 5, "obj-7", "mc.function", "target", 1, 4, "obj-7", "mc.function", "clear", 8, "obj-7", "mc.function", "add_with_curve", 0.0, 0.0, 0, 0.0, 8, "obj-7", "mc.function", "add_with_curve", 0.0, 1.0, 0, 0.0, 8, "obj-7", "mc.function", "add_with_curve", 1000.0, 0.0, 0, -0.995, 5, "obj-7", "mc.function", "target", 2, 4, "obj-7", "mc.function", "clear", 8, "obj-7", "mc.function", "add_with_curve", 0.0, 0.0, 0, 0.0, 8, "obj-7", "mc.function", "add_with_curve", 9.474324419143352, 0.0, 0, 0.0, 8, "obj-7", "mc.function", "add_with_curve", 9.474324419143352, 1.0, 0, 0.0, 8, "obj-7", "mc.function", "add_with_curve", 1000.0, 0.0, 0, -0.945, 5, "obj-7", "mc.function", "target", 3, 4, "obj-7", "mc.function", "clear", 8, "obj-7", "mc.function", "add_with_curve", 0.0, 0.0, 0, 0.0, 8, "obj-7", "mc.function", "add_with_curve", 22.408425807952881, 0.0, 0, 0.0, 8, "obj-7", "mc.function", "add_with_curve", 22.408425807952881, 1.0, 0, 0.0, 8, "obj-7", "mc.function", "add_with_curve", 1000.0, 0.0, 0, -0.95, 5, "obj-7", "mc.function", "target", 4, 4, "obj-7", "mc.function", "clear", 8, "obj-7", "mc.function", "add_with_curve", 0.0, 0.0, 0, 0.0, 8, "obj-7", "mc.function", "add_with_curve", 36.959289870363598, 0.0, 0, 0.0, 8, "obj-7", "mc.function", "add_with_curve", 36.959289870363598, 1.0, 0, 0.0, 8, "obj-7", "mc.function", "add_with_curve", 1000.0, 0.0, 0, -0.95, 5, "obj-7", "mc.function", "target", 5, 4, "obj-7", "mc.function", "clear", 8, "obj-7", "mc.function", "add_with_curve", 0.0, 0.0, 0, 0.0, 8, "obj-7", "mc.function", "add_with_curve", 49.893391259173129, 0.0, 0, 0.0, 8, "obj-7", "mc.function", "add_with_curve", 49.893391259173129, 1.0, 0, 0.0, 8, "obj-7", "mc.function", "add_with_curve", 219.133858267716533, 0.0, 0, -0.75, 5, "obj-7", "mc.function", "target", 6, 4, "obj-7", "mc.function", "clear", 8, "obj-7", "mc.function", "add_with_curve", 0.0, 0.0, 0, 0.0, 8, "obj-7", "mc.function", "add_with_curve", 62.827492647982659, 0.0, 0, 0.0, 8, "obj-7", "mc.function", "add_with_curve", 62.827492647982659, 1.0, 0, 0.0, 8, "obj-7", "mc.function", "add_with_curve", 219.133858267716533, 0.0, 0, -0.75, 5, "obj-7", "mc.function", "domain", 1000.0, 6, "obj-7", "mc.function", "range", 0.0, 1.0, 5, "obj-7", "mc.function", "mode", 1, 5, "obj-9", "number", "int", 6, 5, "obj-22", "flonum", "float", 219.133865356445312, 5, "obj-17", "flonum", "float", 0.299212604761124, 5, "obj-21", "flonum", "float", 5.070866107940674, 5, "obj-37", "live.dial", "float", 219.133865356445312, 5, "obj-14", "live.dial", "float", 5.070866107940674, 5, "obj-13", "live.dial", "float", 0.299212604761124, 5, "obj-54", "live.dial", "float", 0.0, 5, "obj-55", "live.toggle", "float", 0.0, 5, "obj-52", "live.dial", "float", 200.0, 5, "obj-90", "live.dial", "float", -72.0 ]
						}
 ]
				}

			}
, 			{
				"box" : 				{
					"format" : 6,
					"id" : "obj-21",
					"maxclass" : "flonum",
					"numinlets" : 1,
					"numoutlets" : 2,
					"outlettype" : [ "", "bang" ],
					"parameter_enable" : 0,
					"patching_rect" : [ 111.0, 524.5, 50.0, 22.0 ]
				}

			}
, 			{
				"box" : 				{
					"id" : "obj-18",
					"maxclass" : "newobj",
					"numinlets" : 2,
					"numoutlets" : 1,
					"outlettype" : [ "multichannelsignal" ],
					"patching_rect" : [ 46.0, 556.0, 84.0, 22.0 ],
					"text" : "mc.overdrive~"
				}

			}
, 			{
				"box" : 				{
					"format" : 6,
					"id" : "obj-17",
					"maxclass" : "flonum",
					"numinlets" : 1,
					"numoutlets" : 2,
					"outlettype" : [ "", "bang" ],
					"parameter_enable" : 0,
					"patching_rect" : [ 90.0, 602.0, 50.0, 22.0 ]
				}

			}
, 			{
				"box" : 				{
					"id" : "obj-6",
					"maxclass" : "newobj",
					"numinlets" : 1,
					"numoutlets" : 1,
					"outlettype" : [ "multichannelsignal" ],
					"patching_rect" : [ 90.0, 641.0, 50.0, 22.0 ],
					"text" : "mc.sig~"
				}

			}
, 			{
				"box" : 				{
					"id" : "obj-5",
					"maxclass" : "newobj",
					"numinlets" : 2,
					"numoutlets" : 1,
					"outlettype" : [ "multichannelsignal" ],
					"patching_rect" : [ 46.0, 682.0, 40.0, 22.0 ],
					"text" : "mc.*~"
				}

			}
, 			{
				"box" : 				{
					"format" : 6,
					"id" : "obj-22",
					"maxclass" : "flonum",
					"maximum" : 300.0,
					"minimum" : 170.0,
					"numinlets" : 1,
					"numoutlets" : 2,
					"outlettype" : [ "", "bang" ],
					"parameter_enable" : 0,
					"patching_rect" : [ 220.0, 91.0, 50.0, 22.0 ]
				}

			}
, 			{
				"box" : 				{
					"id" : "obj-20",
					"maxclass" : "message",
					"numinlets" : 2,
					"numoutlets" : 1,
					"outlettype" : [ "" ],
					"patching_rect" : [ 220.0, 154.0, 131.0, 22.0 ],
					"text" : "setvalue 6 3 $1 0 -0.75"
				}

			}
, 			{
				"box" : 				{
					"id" : "obj-19",
					"maxclass" : "message",
					"numinlets" : 2,
					"numoutlets" : 1,
					"outlettype" : [ "" ],
					"patching_rect" : [ 250.0, 123.0, 131.0, 22.0 ],
					"text" : "setvalue 5 3 $1 0 -0.75"
				}

			}
, 			{
				"box" : 				{
					"id" : "obj-16",
					"maxclass" : "newobj",
					"numinlets" : 1,
					"numoutlets" : 0,
					"patching_rect" : [ 46.0, 718.0, 54.0, 22.0 ],
					"text" : "mc.dac~"
				}

			}
, 			{
				"box" : 				{
					"id" : "obj-11",
					"maxclass" : "newobj",
					"numinlets" : 3,
					"numoutlets" : 3,
					"outlettype" : [ "multichannelsignal", "", "" ],
					"patching_rect" : [ 265.0, 410.0, 122.0, 22.0 ],
					"text" : "mc.curve~ @chans 6"
				}

			}
, 			{
				"box" : 				{
					"id" : "obj-10",
					"maxclass" : "newobj",
					"numinlets" : 2,
					"numoutlets" : 2,
					"outlettype" : [ "setvalue", "int" ],
					"patching_rect" : [ 265.0, 375.0, 59.0, 22.0 ],
					"text" : "mc.target"
				}

			}
, 			{
				"box" : 				{
					"id" : "obj-9",
					"maxclass" : "number",
					"numinlets" : 1,
					"numoutlets" : 2,
					"outlettype" : [ "", "bang" ],
					"parameter_enable" : 0,
					"patching_rect" : [ 401.0, 335.0, 50.0, 22.0 ]
				}

			}
, 			{
				"box" : 				{
					"bgcolor" : [ 0.095481, 0.100396, 0.100293, 1.0 ],
					"candycane" : 6,
					"candycane6" : [ 0.831372549019608, 0.270588235294118, 0.309803921568627, 1.0 ],
					"chans" : 6,
					"classic_curve" : 1,
					"data" : [ 						{
							"addpoints_with_curve" : [ 0.0, 0.0, 0, 0.0, 0.0, 1.0, 0, 0.0, 1000.0, 0.0, 0, -0.995 ]
						}
, 						{
							"addpoints_with_curve" : [ 0.0, 0.0, 0, 0.0, 9.474324419143352, 0.0, 0, 0.0, 9.474324419143352, 1.0, 0, 0.0, 1000.0, 0.0, 0, -0.945 ]
						}
, 						{
							"addpoints_with_curve" : [ 0.0, 0.0, 0, 0.0, 22.408425807952881, 0.0, 0, 0.0, 22.408425807952881, 1.0, 0, 0.0, 1000.0, 0.0, 0, -0.95 ]
						}
, 						{
							"addpoints_with_curve" : [ 0.0, 0.0, 0, 0.0, 36.959289870363598, 0.0, 0, 0.0, 36.959289870363598, 1.0, 0, 0.0, 1000.0, 0.0, 0, -0.95 ]
						}
, 						{
							"addpoints_with_curve" : [ 0.0, 0.0, 0, 0.0, 49.893391259173129, 0.0, 0, 0.0, 49.893391259173129, 1.0, 0, 0.0, 219.133858267716533, 0.0, 0, -0.75 ]
						}
, 						{
							"addpoints_with_curve" : [ 0.0, 0.0, 0, 0.0, 62.827492647982659, 0.0, 0, 0.0, 62.827492647982659, 1.0, 0, 0.0, 219.133858267716533, 0.0, 0, -0.75 ]
						}
 ],
					"displaychan" : 6,
					"id" : "obj-7",
					"maxclass" : "mc.function",
					"mode" : 1,
					"numinlets" : 1,
					"numoutlets" : 5,
					"outlettype" : [ "float", "", "", "bang", "int" ],
					"parameter_enable" : 0,
					"patching_rect" : [ 220.0, 207.0, 200.0, 118.0 ],
					"presentation" : 1,
					"presentation_rect" : [ 2.0, 21.0, 200.0, 118.0 ]
				}

			}
, 			{
				"box" : 				{
					"id" : "obj-4",
					"maxclass" : "newobj",
					"numinlets" : 4,
					"numoutlets" : 1,
					"outlettype" : [ "multichannelsignal" ],
					"patching_rect" : [ 46.0, 265.0, 138.0, 22.0 ],
					"text" : "mc.reson~ 1. 1275. 1.89"
				}

			}
, 			{
				"box" : 				{
					"id" : "obj-3",
					"maxclass" : "newobj",
					"numinlets" : 2,
					"numoutlets" : 1,
					"outlettype" : [ "multichannelsignal" ],
					"patching_rect" : [ 46.0, 222.0, 140.0, 22.0 ],
					"text" : "mc.stereo~ @autogain 1"
				}

			}
, 			{
				"box" : 				{
					"id" : "obj-2",
					"maxclass" : "newobj",
					"numinlets" : 2,
					"numoutlets" : 1,
					"outlettype" : [ "multichannelsignal" ],
					"patching_rect" : [ 46.0, 191.0, 97.0, 22.0 ],
					"text" : "mc.*~ @chans 6"
				}

			}
, 			{
				"box" : 				{
					"id" : "obj-1",
					"maxclass" : "newobj",
					"numinlets" : 1,
					"numoutlets" : 1,
					"outlettype" : [ "multichannelsignal" ],
					"patching_rect" : [ 46.0, 145.0, 121.0, 22.0 ],
					"text" : "mc.noise~ @chans 6"
				}

			}
 ],
		"lines" : [ 			{
				"patchline" : 				{
					"destination" : [ "obj-2", 0 ],
					"source" : [ "obj-1", 0 ]
				}

			}
, 			{
				"patchline" : 				{
					"destination" : [ "obj-11", 0 ],
					"source" : [ "obj-10", 0 ]
				}

			}
, 			{
				"patchline" : 				{
					"destination" : [ "obj-2", 1 ],
					"midpoints" : [ 274.5, 442.0, 211.0, 442.0, 211.0, 180.0, 133.5, 180.0 ],
					"source" : [ "obj-11", 0 ]
				}

			}
, 			{
				"patchline" : 				{
					"destination" : [ "obj-37", 0 ],
					"midpoints" : [ 359.5, 83.0, 272.5, 83.0, 272.5, 27.0, 229.5, 27.0 ],
					"source" : [ "obj-12", 0 ]
				}

			}
, 			{
				"patchline" : 				{
					"destination" : [ "obj-17", 0 ],
					"midpoints" : [ 160.5, 666.0, 144.0, 666.0, 144.0, 591.0, 99.5, 591.0 ],
					"source" : [ "obj-13", 0 ]
				}

			}
, 			{
				"patchline" : 				{
					"destination" : [ "obj-5", 0 ],
					"midpoints" : [ 267.5, 756.0, 111.0, 756.0, 111.0, 678.0, 55.5, 678.0 ],
					"source" : [ "obj-139", 0 ]
				}

			}
, 			{
				"patchline" : 				{
					"destination" : [ "obj-21", 0 ],
					"source" : [ "obj-14", 0 ]
				}

			}
, 			{
				"patchline" : 				{
					"destination" : [ "obj-7", 0 ],
					"midpoints" : [ 433.5, 193.5, 229.5, 193.5 ],
					"source" : [ "obj-15", 0 ]
				}

			}
, 			{
				"patchline" : 				{
					"destination" : [ "obj-6", 0 ],
					"source" : [ "obj-17", 0 ]
				}

			}
, 			{
				"patchline" : 				{
					"destination" : [ "obj-24", 1 ],
					"midpoints" : [ 55.5, 588.0, 284.75, 588.0 ],
					"order" : 0,
					"source" : [ "obj-18", 0 ]
				}

			}
, 			{
				"patchline" : 				{
					"destination" : [ "obj-5", 0 ],
					"order" : 1,
					"source" : [ "obj-18", 0 ]
				}

			}
, 			{
				"patchline" : 				{
					"destination" : [ "obj-7", 0 ],
					"midpoints" : [ 259.5, 181.0, 229.5, 181.0 ],
					"source" : [ "obj-19", 0 ]
				}

			}
, 			{
				"patchline" : 				{
					"destination" : [ "obj-3", 0 ],
					"source" : [ "obj-2", 0 ]
				}

			}
, 			{
				"patchline" : 				{
					"destination" : [ "obj-7", 0 ],
					"source" : [ "obj-20", 0 ]
				}

			}
, 			{
				"patchline" : 				{
					"destination" : [ "obj-18", 1 ],
					"source" : [ "obj-21", 0 ]
				}

			}
, 			{
				"patchline" : 				{
					"destination" : [ "obj-19", 0 ],
					"midpoints" : [ 229.5, 117.5, 259.5, 117.5 ],
					"order" : 0,
					"source" : [ "obj-22", 0 ]
				}

			}
, 			{
				"patchline" : 				{
					"destination" : [ "obj-20", 0 ],
					"order" : 1,
					"source" : [ "obj-22", 0 ]
				}

			}
, 			{
				"patchline" : 				{
					"destination" : [ "obj-13", 0 ],
					"midpoints" : [ 364.0, 594.388886451721191, 160.5, 594.388886451721191 ],
					"source" : [ "obj-23", 5 ]
				}

			}
, 			{
				"patchline" : 				{
					"destination" : [ "obj-14", 0 ],
					"midpoints" : [ 353.5, 582.361869096755981, 165.87562108039856, 582.361869096755981, 165.87562108039856, 461.999991893768311, 120.5, 461.999991893768311 ],
					"source" : [ "obj-23", 4 ]
				}

			}
, 			{
				"patchline" : 				{
					"destination" : [ "obj-52", 0 ],
					"midpoints" : [ 322.0, 514.701994657516479, 406.5, 514.701994657516479 ],
					"source" : [ "obj-23", 1 ]
				}

			}
, 			{
				"patchline" : 				{
					"destination" : [ "obj-54", 0 ],
					"midpoints" : [ 343.0, 522.32363486289978, 383.5, 522.32363486289978 ],
					"source" : [ "obj-23", 3 ]
				}

			}
, 			{
				"patchline" : 				{
					"destination" : [ "obj-55", 0 ],
					"midpoints" : [ 311.5, 503.780549764633179, 267.5, 503.780549764633179 ],
					"source" : [ "obj-23", 0 ]
				}

			}
, 			{
				"patchline" : 				{
					"destination" : [ "obj-90", 0 ],
					"midpoints" : [ 332.5, 506.656540155410767, 462.5, 506.656540155410767 ],
					"source" : [ "obj-23", 2 ]
				}

			}
, 			{
				"patchline" : 				{
					"destination" : [ "obj-139", 1 ],
					"midpoints" : [ 267.5, 725.5, 340.5, 725.5 ],
					"order" : 0,
					"source" : [ "obj-24", 0 ]
				}

			}
, 			{
				"patchline" : 				{
					"destination" : [ "obj-139", 0 ],
					"order" : 1,
					"source" : [ "obj-24", 0 ]
				}

			}
, 			{
				"patchline" : 				{
					"destination" : [ "obj-15", 0 ],
					"source" : [ "obj-25", 0 ]
				}

			}
, 			{
				"patchline" : 				{
					"destination" : [ "obj-4", 0 ],
					"source" : [ "obj-3", 0 ]
				}

			}
, 			{
				"patchline" : 				{
					"destination" : [ "obj-22", 0 ],
					"source" : [ "obj-37", 0 ]
				}

			}
, 			{
				"patchline" : 				{
					"destination" : [ "obj-18", 0 ],
					"source" : [ "obj-4", 0 ]
				}

			}
, 			{
				"patchline" : 				{
					"destination" : [ "obj-12", 0 ],
					"midpoints" : [ 454.0, 42.5, 359.5, 42.5 ],
					"source" : [ "obj-41", 1 ]
				}

			}
, 			{
				"patchline" : 				{
					"destination" : [ "obj-23", 0 ],
					"midpoints" : [ 474.5, 78.0, 501.0, 78.0, 501.0, 159.0, 462.0, 159.0, 462.0, 456.0, 311.5, 456.0 ],
					"source" : [ "obj-41", 2 ]
				}

			}
, 			{
				"patchline" : 				{
					"destination" : [ "obj-49", 0 ],
					"source" : [ "obj-41", 0 ]
				}

			}
, 			{
				"patchline" : 				{
					"destination" : [ "obj-51", 0 ],
					"source" : [ "obj-49", 0 ]
				}

			}
, 			{
				"patchline" : 				{
					"destination" : [ "obj-16", 0 ],
					"order" : 1,
					"source" : [ "obj-5", 0 ]
				}

			}
, 			{
				"patchline" : 				{
					"destination" : [ "obj-26", 0 ],
					"order" : 0,
					"source" : [ "obj-5", 0 ]
				}

			}
, 			{
				"patchline" : 				{
					"destination" : [ "obj-15", 0 ],
					"source" : [ "obj-51", 0 ]
				}

			}
, 			{
				"patchline" : 				{
					"destination" : [ "obj-24", 2 ],
					"midpoints" : [ 406.5, 606.818178057670593, 302.0, 606.818178057670593 ],
					"source" : [ "obj-52", 0 ]
				}

			}
, 			{
				"patchline" : 				{
					"destination" : [ "obj-24", 4 ],
					"midpoints" : [ 383.5, 692.815634310245514, 336.5, 692.815634310245514 ],
					"source" : [ "obj-54", 0 ]
				}

			}
, 			{
				"patchline" : 				{
					"destination" : [ "obj-24", 0 ],
					"source" : [ "obj-55", 0 ]
				}

			}
, 			{
				"patchline" : 				{
					"destination" : [ "obj-5", 1 ],
					"source" : [ "obj-6", 0 ]
				}

			}
, 			{
				"patchline" : 				{
					"destination" : [ "obj-10", 0 ],
					"source" : [ "obj-7", 1 ]
				}

			}
, 			{
				"patchline" : 				{
					"destination" : [ "obj-9", 0 ],
					"source" : [ "obj-7", 4 ]
				}

			}
, 			{
				"patchline" : 				{
					"destination" : [ "obj-30", 0 ],
					"source" : [ "obj-8", 0 ]
				}

			}
, 			{
				"patchline" : 				{
					"destination" : [ "obj-10", 1 ],
					"midpoints" : [ 410.5, 366.0, 314.5, 366.0 ],
					"source" : [ "obj-9", 0 ]
				}

			}
, 			{
				"patchline" : 				{
					"destination" : [ "obj-24", 3 ],
					"midpoints" : [ 462.5, 616.636359691619873, 319.25, 616.636359691619873 ],
					"source" : [ "obj-90", 0 ]
				}

			}
 ],
		"bgcolor" : [ 0.0, 0.0, 0.0, 1.0 ],
		"editing_bgcolor" : [ 0.0, 0.0, 0.0, 1.0 ]
	}

}
